<?xml version="1.0" encoding="utf-8"?>
<!-- Generator: Adobe Illustrator 23.0.0, SVG Export Plug-In . SVG Version: 6.00 Build 0)  -->
<svg version="1.1" id="Capa_1" xmlns="http://www.w3.org/2000/svg" xmlns:xlink="http://www.w3.org/1999/xlink" x="0px" y="0px"
	 viewBox="0 0 474.8 474.8" style="enable-background:new 0 0 474.8 474.8;" xml:space="preserve">
<style type="text/css">
	.st0{fill:#424242;}
</style>
<g>
	<g>
		<path class="st0" d="M396.3,257.1c-1.1-0.6-2.3-0.9-3.4-0.9c-2.5,0-4.7,1-6.6,2.9L368,277.4c-1.7,1.7-2.6,3.8-2.6,6.3v72.5
			c0,12.6-4.5,23.3-13.4,32.3c-8.9,8.9-19.7,13.4-32.3,13.4H82.2c-12.6,0-23.3-4.5-32.3-13.4c-8.9-8.9-13.4-19.7-13.4-32.3V118.6
			c0-12.6,4.5-23.3,13.4-32.3c8.9-8.9,19.7-13.4,32.3-13.4h237.5c4.2,0,8.5,0.6,12.8,1.7c1.1,0.4,2,0.6,2.6,0.6
			c2.5,0,4.7-0.9,6.6-2.9l14-14c2.3-2.3,3.1-5,2.6-8.3c-0.6-3-2.3-5.2-5.1-6.6c-10.3-4.8-21.4-7.1-33.4-7.1H82.2
			c-22.7,0-42,8-58.1,24.1C8,76.6,0,96,0,118.6v237.5c0,22.6,8,42,24.1,58.1s35.5,24.1,58.1,24.1h237.5c22.6,0,42-8,58.1-24.1
			s24.1-35.5,24.1-58.1v-90.8C402,261.4,400.1,258.6,396.3,257.1z"/>
		<path class="st0" d="M468,93.2l-31.4-31.4c-4.6-4.6-10-6.9-16.3-6.9s-11.7,2.3-16.3,6.9L219.3,246.5l-75.1-75.1
			c-4.6-4.6-10-6.9-16.3-6.9s-11.7,2.3-16.3,6.9l-31.4,31.4c-4.6,4.6-6.9,10-6.9,16.3s2.3,11.7,6.9,16.3L203,358.2
			c4.6,4.6,10,6.9,16.3,6.9s11.7-2.3,16.3-6.9L468,125.8c4.6-4.6,6.9-10,6.9-16.3S472.5,97.8,468,93.2z"/>
	</g>
</g>
</svg>
