<?xml version="1.0" encoding="utf-8"?>
<!-- Generator: Adobe Illustrator 23.0.0, SVG Export Plug-In . SVG Version: 6.00 Build 0)  -->
<svg version="1.1" id="Layer_1" xmlns="http://www.w3.org/2000/svg" xmlns:xlink="http://www.w3.org/1999/xlink" x="0px" y="0px"
	 viewBox="0 0 16 22" style="enable-background:new 0 0 16 22;" xml:space="preserve">
<style type="text/css">
	.st0{fill:#424242;}
</style>
<path class="st0" d="M3.1,9.1L3.1,9.1c0.4,0.4,0.8,1.2,1,2.4C4,11.8,4,12,4,12.1c0,2.2,1.8,4,4,4c1.1,0,2.1-0.4,2.8-1.2
	c0.7-0.7,1.2-1.8,1.2-2.8c0-2.2-1.8-4-4-4l-0.4,0V10C7.6,10,6,8.6,6,8.6L4.1,7.1l3.5-2.9v2.2l0.4,0c3.2,0,5.7,2.6,5.7,5.8
	c0,1.5-0.6,3-1.7,4.1c-2.2,2.3-5.9,2.3-8.1,0c-1.1-1.1-1.7-2.5-1.7-4.1C2.2,11,2.5,10,3.1,9.1z"/>
</svg>
