<?xml version="1.0" encoding="utf-8"?>
<!-- Generator: Adobe Illustrator 23.0.0, SVG Export Plug-In . SVG Version: 6.00 Build 0)  -->
<svg version="1.1" id="Capa_1" xmlns="http://www.w3.org/2000/svg" xmlns:xlink="http://www.w3.org/1999/xlink" x="0px" y="0px"
	 viewBox="0 0 558.5 558.5" style="enable-background:new 0 0 558.5 558.5;" xml:space="preserve">
<style type="text/css">
	.st0{fill:#C5C5C5;}
</style>
<g>
	<g id="visibility-off">
		<path class="st0" d="M280.5,139c71.4,0,127.5,56.1,127.5,127.5c0,15.3-2.5,33.1-10.2,45.9l74,73.9c38.2-33.1,68.8-73.9,86.7-119.9
			C515.1,154.3,405.5,75.2,278,75.2c-35.7,0-68.9,7.7-102,17.8l56.1,56.1C247.4,141.5,265.2,139,280.5,139z M25.5,70.1l58.7,58.6
			L94.3,139C51,172.1,17.8,215.5,0,266.5c43.3,112.2,153,191.2,280.5,191.2c38.2,0,76.5-7.6,112.2-20.4l10.2,10.2l73.9,73.9
			l33.1-33.1L58.7,37L25.5,70.1z M165.8,210.4l38.2,38.2c0,7.6,0,12.8,0,17.9c0,43.4,33.1,76.5,76.5,76.5c5.1,0,10.2,0,17.9-2.5
			l38.2,38.2c-17.9,10.2-35.7,15.3-56.1,15.3C209.1,394,153,337.9,153,266.5C153,246.1,158.1,228.2,165.8,210.4z M275.4,190
			l79.1,79.1c0-2.5,0-2.5,0-5.1c0-43.4-33.1-76.5-76.5-76.5C278,190,278,190,275.4,190z"/>
	</g>
</g>
</svg>
