<?xml version="1.0" encoding="utf-8"?>
<!-- Generator: Adobe Illustrator 23.0.0, SVG Export Plug-In . SVG Version: 6.00 Build 0)  -->
<svg version="1.1" id="Capa_1" xmlns="http://www.w3.org/2000/svg" xmlns:xlink="http://www.w3.org/1999/xlink" x="0px" y="0px"
	 viewBox="0 0 474.8 474.8" style="enable-background:new 0 0 474.8 474.8;" xml:space="preserve">
<style type="text/css">
	.st0{fill:#EEEEEE;}
</style>
<g>
	<path class="st0" d="M377.9,60.1C361.8,44,342.4,36,319.8,36H82.2c-22.6,0-42,8-58.1,24.1C8,76.2,0,95.6,0,118.2v237.5
		c0,22.6,8,42,24.1,58.1C40.2,430,59.6,438,82.2,438h237.5c22.6,0,42-8,58.1-24.1c16.1-16.1,24.1-35.5,24.1-58.1V118.2
		C402,95.6,394,76.2,377.9,60.1z M365.5,355.8c0,12.6-4.5,23.3-13.4,32.3c-8.9,8.9-19.7,13.4-32.3,13.4H82.2
		c-12.6,0-23.3-4.5-32.3-13.4c-8.9-8.9-13.4-19.7-13.4-32.3V118.2C36.5,105.7,41,94.9,50,86c8.9-8.9,19.7-13.4,32.3-13.4h237.5
		c12.6,0,23.3,4.5,32.3,13.4c8.9,8.9,13.4,19.7,13.4,32.3L365.5,355.8L365.5,355.8z"/>
</g>
</svg>
